<?xml version="1.0" standalone="no"?>
<!DOCTYPE svg PUBLIC "-//W3C//DTD SVG 1.0//EN" "http://www.w3.org/TR/2001/REC-SVG-20010904/DTD/svg10.dtd">
<svg xmlns="http://www.w3.org/2000/svg" xmlns:xlink="http://www.w3.org/1999/xlink" id="body_1" width="32" height="32">

<g transform="matrix(0.026666667 0 0 0.026666667 0 0)">
	<g>
        <path d="M1149.4 736.32L1149.4 1028.47C 1149.4 1095.849 1113.545 1131.98 1064.1381 1131.98L1064.1381 1131.98L162.67804 1131.98C 113.143036 1131.98 77.28704 1083.093 77.28704 1015.70996L77.28704 1015.70996L77.28704 178.29999C 77.28704 110.92099 113.142044 62.02999 162.67804 62.02999L162.67804 62.02999L1064.1381 62.02999C 1113.54 62.02999 1149.4 123.67499 1149.4 191.07999L1149.4 191.07999L1149.4 736.32zM221.36005 738.3708C 247.53204 719.35077 284.29004 697.6438 334.95004 683.73376C 457.10004 650.17175 517.84 636.1288 531.39 596.43274L531.39 596.43274L538.015 596.43274C 536.23773 594.90936 534.46423 593.49133 532.7962 591.835C 481.0772 545.10803 441.5232 454.11502 441.5232 380.60504C 441.5232 276.71503 526.6642 192.34505 607.1932 192.34505C 687.6192 192.34505 768.5332 282.20004 768.5332 386.22504C 768.5332 459.73703 724.8772 547.81506 670.7672 592.97504C 681.8802 635.47906 742.6112 649.25604 868.2172 683.71704C 917.47925 697.252 953.47925 718.18207 979.5072 736.697L979.5072 736.697L1047.2732 736.5525L1047.2693 178.3125C 1047.2693 172.6836 1046.7537 167.8475 1045.867 164.1405L1045.867 164.1405L180.90692 164.1405C 180.00848 167.8475 179.36002 172.6835 179.36002 178.3125L179.36002 178.3125L179.36002 738.3725zM1047.27 1015.7308L1047.27 841.52075L179.36005 840.6106L179.36005 1015.7406C 179.36005 1021.3695 180.00848 1026.0726 180.90695 1029.9126L180.90695 1029.9126L1045.867 1029.9126C 1046.7576 1026.0688 1047.2732 1021.354 1047.2732 1015.7366z" stroke="none" fill="#000000" fill-rule="nonzero" />
        <path d="M538.04 596.44L531.415 596.44C 531.9189 594.9166 532.4228 593.4986 532.81726 591.8423C 534.48914 593.4985 536.25476 594.9126 538.04 596.44z" stroke="none" fill="#000000" fill-rule="nonzero" />
	</g>
</g>
</svg>