<?xml version="1.0" standalone="no"?>
<!DOCTYPE svg PUBLIC "-//W3C//DTD SVG 1.0//EN" "http://www.w3.org/TR/2001/REC-SVG-20010904/DTD/svg10.dtd">
<svg xmlns="http://www.w3.org/2000/svg" xmlns:xlink="http://www.w3.org/1999/xlink" id="body_1" width="32" height="32">

<g transform="matrix(0.026666667 0 0 0.026666667 0 0)">
	<g>
        <path d="M1082.4 472.8L984.002 472.8L984.002 571.198L1056.002 571.198L1056.002 967.198L948.00195 967.198C 928.803 986.397 902.39996 995.999 873.60394 995.999L873.60394 995.999L460.80396 995.999L460.80396 1118.399C 460.80396 1152.0011 487.20197 1178.399 520.80396 1178.399L520.80396 1178.399L1082.4039 1178.399C 1116.006 1178.399 1142.4039 1152.0011 1142.4039 1118.399L1142.4039 1118.399L1142.4 530.39905C 1142.4 499.20004 1116.0021 472.80106 1082.4 472.80106L1082.4 472.80106L1082.4 472.8z" stroke="none" fill="#000000" fill-rule="nonzero" />
        <path d="M878.4 945.6C 912.002 945.6 938.4 919.20197 938.4 885.6L938.4 885.6L938.4 300C 938.4 266.398 912.002 240 878.4 240L878.4 240L787.20105 240L787.20105 338.398L852.0021 338.398L852.0021 734.398L763.20105 734.398C 744.0021 758.398 712.80304 775.19904 679.20105 775.19904L679.20105 775.19904L254.40106 775.19904L254.40106 887.999C 254.40106 921.601 280.79907 947.999 314.40106 947.999C 511.20105 945.60065 643.20105 945.60065 878.40106 945.60065L878.40106 945.60065L878.4 945.6z" stroke="none" fill="#000000" fill-rule="nonzero" />
        <path d="M679.2 24L117.60004 24C 83.99803 24 57.600037 50.398003 57.600037 84L57.600037 84L57.600037 669.6C 57.600037 703.20197 83.99804 729.6 117.60004 729.6L117.60004 729.6L681.60004 729.6C 715.202 729.6 739.202 703.20197 739.202 669.6L739.202 669.6L739.1981 84C 739.1981 50.398 712.8001 24 679.1981 24L679.1981 24L679.2 24zM655.2 516L141.60004 516L141.60004 122.399994L655.2 122.399994z" stroke="none" fill="#000000" fill-rule="nonzero" />
        <path d="M398.4 307.2C 441.599 307.2 475.201 271.2 475.201 230.39902C 475.201 187.20001 441.599 153.59802 398.4 153.59802C 345.599 153.59802 312.00198 203.99602 321.599 244.79703C 326.3998 278.39902 360.001 307.19904 398.4 307.19904L398.4 307.19904L398.4 307.2z" stroke="none" fill="#000000" fill-rule="nonzero" />
        <path d="M544.8 487.2L544.8 458.39902C 544.8 391.2 489.60098 333.599 420 333.599L420 333.599L374.398 333.599C 304.79602 333.599 249.598 388.798 249.598 458.399L249.598 458.399L249.598 487.19998L544.79803 487.19998L544.8 487.2z" stroke="none" fill="#000000" fill-rule="nonzero" />
	</g>
</g>
</svg>